<svg xmlns="http://www.w3.org/2000/svg" xmlns:xlink="http://www.w3.org/1999/xlink" width="16" height="16" viewBox="0 0 16 16" fill="none"><g opacity="1"  transform="translate(0 0)  rotate(0)"><mask id="bg-mask-0" fill="white"><use transform="translate(0 0)  rotate(0)" xlink:href="#path_0"></use></mask><g mask="url(#bg-mask-0)" ><g opacity="1"  transform="translate(2 0)  rotate(0)"><path id="路径 1" fill-rule="evenodd" style="fill:#474747" opacity="1" d="M11.16,16h-9.32c-1.02,0 -1.84,-0.85 -1.84,-1.89v-12.22c0,-1.04 0.82,-1.89 1.84,-1.89h6.82c0.65,0 1.27,0.29 1.7,0.79l2.08,2.43c0.36,0.42 0.56,0.97 0.56,1.54v9.35c0,1.04 -0.82,1.89 -1.84,1.89zM1.22,1.89v12.22c0,0.35 0.27,0.64 0.62,0.64h9.32c0.35,0 0.62,-0.29 0.62,-0.64v-9.35c0,-0.26 -0.09,-0.52 -0.26,-0.71l-2.08,-2.43c-0.2,-0.23 -0.48,-0.37 -0.78,-0.37h-6.82c-0.35,0 -0.62,0.29 -0.62,0.64z"></path><path id="路径 2" fill-rule="evenodd" style="fill:#474747" opacity="1" d="M12.4204 4.15455L9.92043 4.15455C9.57043 4.15455 9.30043 3.86455 9.30043 3.51455L9.30043 0.584549L8.08043 0.584549L8.08043 3.51455C8.08043 4.55455 8.90043 5.40455 9.92043 5.40455L12.4204 5.40455L12.4204 4.15455Z"></path><path id="路径 3" fill-rule="evenodd" style="fill:#4F95FC" opacity="1" d="M4.40979 7.18582C4.06979 7.18582 3.79979 7.46582 3.79979 7.81582L3.79979 8.55582C3.79979 8.89582 4.06979 9.17582 4.40979 9.17582C4.73979 9.17582 5.01979 8.89582 5.01979 8.55582L5.01979 8.43582L5.88979 8.43582L5.88979 11.5158L5.82979 11.5158C5.48979 11.5158 5.21979 11.7958 5.21979 12.1458C5.21979 12.4958 5.48979 12.7758 5.82979 12.7758L7.16979 12.7758C7.50979 12.7758 7.77979 12.4958 7.77979 12.1458C7.77979 11.7958 7.50979 11.5158 7.16979 11.5158L7.10979 11.5158L7.10979 8.43582L7.97979 8.43582L7.97979 8.55582C7.97979 8.89582 8.25979 9.17582 8.58979 9.17582C8.92979 9.17582 9.19979 8.89582 9.19979 8.55582L9.19979 7.81582C9.19979 7.46582 8.92979 7.18582 8.58979 7.18582L4.40979 7.18582Z"></path></g></g></g><defs><rect id="path_0" x="0" y="0" width="16" height="16" /></defs></svg>