<svg xmlns="http://www.w3.org/2000/svg" xmlns:xlink="http://www.w3.org/1999/xlink" width="16" height="16" viewBox="0 0 16 16" fill="none"><g opacity="1"  transform="translate(0 0)  rotate(0)"><mask id="bg-mask-0" fill="white"><use transform="translate(0 0)  rotate(0)" xlink:href="#path_0"></use></mask><g mask="url(#bg-mask-0)" ><path id="并集" fill-rule="evenodd" style="fill:#707070" opacity="1" d="M13.83,4.01c0.11,0.11 0.17,0.25 0.17,0.41v11.01c0,0.31 -0.26,0.57 -0.59,0.57h-11.82c-0.33,0 -0.59,-0.26 -0.59,-0.57v-14.86c0,-0.31 0.26,-0.57 0.59,-0.57h7.85c0.15,0 0.3,0.06 0.41,0.17zM12.67,5.89h-3.99c-0.43,0 -0.77,-0.33 -0.77,-0.75v-3.85h-5.58v13.42h10.34zM9.16,1.32v3.36h3.48zM5.9663,7.4514l1.54,3.41l1.53,-3.41c0.04,-0.08 0.12,-0.13 0.21,-0.13h0.64c0.12,0 0.22,0.1 0.22,0.21v4.86c0,0.12 -0.1,0.22 -0.22,0.22h-0.51c-0.12,0 -0.22,-0.1 -0.22,-0.22v-3.15l-1.23,2.69c-0.04,0.08 -0.12,0.13 -0.2,0.13h-0.45c-0.09,0 -0.17,-0.05 -0.2,-0.13l-1.24,-2.68v3.14c0,0.12 -0.1,0.22 -0.22,0.22h-0.5c-0.12,0 -0.22,-0.1 -0.22,-0.22v-4.86c0,-0.11 0.1,-0.21 0.22,-0.21h0.65c0.09,0 0.17,0.05 0.2,0.13z"></path></g></g><defs><rect id="path_0" x="0" y="0" width="16" height="16" /></defs></svg>